<svg width="47" height="47" viewBox="0 0 47 47" fill="none" xmlns="http://www.w3.org/2000/svg">
<rect x="0.525391" y="0.817154" width="45.8057" height="45.8057" rx="3.81714" fill="#FEF3F2"/>
<path d="M26.4985 18.5192H17.49C17.2228 18.5192 16.9747 18.5288 16.7457 18.5383C14.484 18.6719 13.8828 19.5022 13.8828 22.0787V22.6322C13.8828 23.1571 14.3122 23.5865 14.8371 23.5865H29.1514C29.6762 23.5865 30.1057 23.1571 30.1057 22.6322V22.0787C30.1057 19.235 29.3804 18.5192 26.4985 18.5192Z" fill="#D92C20"/>
<path d="M14.8371 25.0185C14.3122 25.0185 13.8828 25.4479 13.8828 25.9728V28.7498C13.8828 31.5935 14.6081 32.3093 17.49 32.3093H26.4985C29.3327 32.3093 30.077 31.6222 30.1057 28.9025V25.9728C30.1057 25.4479 29.6762 25.0185 29.1514 25.0185H14.8371ZM18.6161 29.9808H16.9842C16.593 29.9808 16.2685 29.6563 16.2685 29.2651C16.2685 28.8738 16.593 28.5494 16.9842 28.5494H18.6256C19.0169 28.5494 19.3413 28.8738 19.3413 29.2651C19.3413 29.6563 19.0169 29.9808 18.6161 29.9808ZM23.9505 29.9808H20.6678C20.2765 29.9808 19.9521 29.6563 19.9521 29.2651C19.9521 28.8738 20.2765 28.5494 20.6678 28.5494H23.9505C24.3418 28.5494 24.6662 28.8738 24.6662 29.2651C24.6662 29.6563 24.3513 29.9808 23.9505 29.9808Z" fill="#D92C20"/>
<path d="M32.9712 24.9889V19.9884C32.9712 17.0015 31.2631 15.7037 28.6865 15.7037H20.1647C19.4395 15.7037 18.7905 15.8087 18.218 16.0281C17.7695 16.1904 17.3687 16.4289 17.0442 16.7439C16.8724 16.9061 17.006 17.1733 17.2541 17.1733H27.6272C29.7744 17.1733 31.5112 18.9101 31.5112 21.0572V27.8995C31.5112 28.138 31.7688 28.2716 31.9406 28.0999C32.599 27.4032 32.9712 26.3821 32.9712 24.9889Z" fill="#D92C20"/>
</svg>
