<svg width="149" height="45" viewBox="0 0 149 45" fill="none" xmlns="http://www.w3.org/2000/svg">
<g clip-path="url(#clip0_2057_46617)">
<path d="M40.2026 12.8582L40.1953 13.0066C40.1953 13.0066 40.1953 13.0212 40.1953 13.031L40.2002 13.0748C40.2026 12.9774 40.2051 12.8825 40.2051 12.7852C40.2051 12.8095 40.2051 12.8338 40.2051 12.8582H40.2026Z" fill="white"/>
<path d="M42.9018 41.7897L40.1995 13.0772L40.1946 13.031C40.1946 13.0237 40.1946 13.0164 40.1946 13.0067L40.2019 12.8582C40.2019 12.8338 40.2019 12.8095 40.2019 12.7852C40.2044 6.33782 35.4284 0.84699 29.0929 0.0121694C29.0295 0.00243388 28.9686 0 28.9053 0H7.4328C6.64086 0 6 0.64011 6 1.43112V37.1799C6 37.9685 6.64086 38.6111 7.4328 38.6111H34.1052L37.4314 43.5689C37.9748 44.4743 38.9056 45.0024 39.9485 45.0024C39.9899 45.0024 40.0289 45.0024 40.0703 45.0024C41.1839 44.9586 42.1708 44.3185 42.6411 43.3352C42.8628 42.8679 42.9554 42.3349 42.9043 41.7946L42.9018 41.7897ZM8.86316 35.7488V2.85981H28.8078C31.1324 3.18838 33.2743 4.35908 34.8484 6.16258C36.4494 7.99286 37.3339 10.3318 37.3412 12.7535C37.3412 12.7657 37.3412 12.7754 37.3412 12.7876C37.3412 12.8923 37.3388 12.9994 37.3315 13.104C37.2169 15.2556 35.9425 17.502 33.7129 19.4662C31.5101 21.4108 28.6957 22.7689 26.1859 23.1C26.181 23.1 26.1761 23.1 26.1712 23.1C26.0421 23.117 25.9154 23.1535 25.7911 23.2095C25.7789 23.2143 25.7643 23.2216 25.7521 23.2265C25.6912 23.2557 25.6327 23.2898 25.5742 23.3263C25.5742 23.3263 25.5718 23.3263 25.5694 23.3287C25.5523 23.3409 25.5353 23.3531 25.5182 23.3652C25.5158 23.3652 25.5133 23.3677 25.5109 23.3701C25.4987 23.3798 25.4865 23.3871 25.4743 23.3969C25.4597 23.4066 25.4451 23.4188 25.4329 23.431C25.428 23.4358 25.4232 23.4407 25.4183 23.4456C25.4012 23.4602 25.3842 23.4772 25.3671 23.4942C25.3647 23.4942 25.3598 23.4991 25.3574 23.5015C25.3403 23.5186 25.3233 23.538 25.3062 23.5551C25.2891 23.5746 25.2721 23.594 25.2575 23.6111C25.2428 23.6281 25.2307 23.6451 25.2185 23.6622C25.2087 23.6719 25.2039 23.6816 25.1966 23.6938C25.1819 23.7157 25.1649 23.7401 25.1503 23.762C25.1405 23.7766 25.1308 23.7936 25.1235 23.8082C25.1161 23.8204 25.1088 23.8326 25.1015 23.8447C25.0869 23.8715 25.0747 23.8983 25.0625 23.925C25.0503 23.9518 25.0406 23.9761 25.0309 24.0029C25.0211 24.0297 25.0114 24.054 25.004 24.0808C25.004 24.0857 25.0016 24.0905 24.9992 24.0954C24.9919 24.1149 24.987 24.1344 24.9821 24.1514C24.9797 24.1611 24.9772 24.1733 24.9748 24.183C24.9699 24.1976 24.9675 24.2147 24.9651 24.2293C24.9626 24.2414 24.9602 24.256 24.9578 24.2682C24.9578 24.278 24.9529 24.2901 24.9529 24.3023C24.9504 24.3169 24.948 24.3339 24.9456 24.3485C24.9456 24.3583 24.9456 24.3656 24.9456 24.3753C24.9456 24.3948 24.9431 24.4118 24.9407 24.4313C24.9334 24.5432 24.9407 24.6552 24.9626 24.7647C24.9724 24.8158 24.9846 24.8645 24.9992 24.9132C25.0041 24.9327 25.0089 24.9497 25.0162 24.9667C25.0284 24.9984 25.0406 25.03 25.0528 25.0617C25.0528 25.0617 25.0528 25.0617 25.0528 25.0641C25.0674 25.0957 25.082 25.1274 25.0966 25.1566C25.121 25.2053 25.1478 25.2515 25.1795 25.2977L32.1802 35.7342H8.86316V35.7488ZM40.0509 42.1037C40.0387 42.1183 39.9997 42.1378 39.9583 42.1402C39.9241 42.1402 39.912 42.1402 39.8827 42.0891C39.8681 42.0623 39.8486 42.0331 39.8315 42.0088L36.0668 36.3962L28.7322 25.4632C31.147 24.7428 33.6033 23.3798 35.6087 21.6104C36.4908 20.8316 37.2559 20.0065 37.8943 19.1498L40.0509 42.0574C40.0509 42.0793 40.0509 42.0964 40.0509 42.1061V42.1037Z" fill="white"/>
<path d="M69.8498 30.6878C66.1265 30.6878 63.0977 27.6625 63.0977 23.9435C63.0977 20.2245 66.1265 17.2041 69.8498 17.2041C73.3173 17.2041 76.2706 19.8984 76.5728 23.3399C76.5923 23.5663 76.602 23.7585 76.602 23.9411C76.602 24.1236 76.5923 24.3208 76.5728 24.5447L76.5581 24.7078C76.5338 24.9706 76.3169 25.1678 76.0537 25.1678H69.075C67.859 25.1678 66.665 25.5742 66.1752 26.1559C66.9501 27.4313 68.3586 28.2271 69.8498 28.2271C71.1145 28.2271 72.3085 27.6747 73.1224 26.7084L73.2198 26.594C73.3173 26.4796 73.4586 26.4139 73.6073 26.4139C73.695 26.4139 73.7827 26.4382 73.8607 26.4821L75.1205 27.2073C75.2496 27.2804 75.3373 27.4069 75.3641 27.5505C75.391 27.6966 75.3544 27.845 75.2618 27.9594L75.1327 28.1225C73.8388 29.7483 71.9137 30.6805 69.8474 30.6805L69.8498 30.6878ZM69.8498 19.6623C67.6153 19.6623 65.7732 21.3733 65.5734 23.5517C66.5505 23.0113 67.7713 22.7168 69.0725 22.7168H73.963C73.4318 20.9036 71.7822 19.6623 69.8498 19.6623Z" fill="white"/>
<path d="M84.0957 30.6878C80.4455 30.6343 77.4653 27.6187 77.4532 23.9703C77.441 20.2416 80.4723 17.2065 84.2005 17.2065C86.5495 17.2065 88.7645 18.4551 89.9804 20.4631L90.1266 20.704C90.1875 20.8062 90.2192 20.9255 90.2046 21.0423C90.1778 21.2395 90.0462 21.3977 89.8634 21.4585L88.3624 21.9648C88.2747 21.994 88.1821 21.9989 88.0919 21.9794C87.9579 21.9502 87.8434 21.8626 87.7678 21.7506L87.6777 21.6167C86.8955 20.4582 85.5967 19.767 84.2005 19.767C83.9422 19.767 83.6863 19.7889 83.4353 19.8351C81.4835 20.188 80.0483 21.9088 80.0166 23.89C80.0044 24.5763 80.1628 25.2505 80.4918 25.8785C81.2179 27.2658 82.6385 28.1274 84.2005 28.1274C85.5967 28.1274 86.8955 27.4361 87.6777 26.2776L87.9945 25.8054L89.8464 26.4309C89.9585 26.4699 90.0608 26.5405 90.1242 26.6403C90.2314 26.8082 90.2314 27.0151 90.1315 27.1781L89.9779 27.4313C88.7206 29.5001 86.5154 30.7219 84.0957 30.6878Z" fill="white"/>
<path d="M97.8576 30.6878C94.1343 30.6878 91.1055 27.6625 91.1055 23.9435C91.1055 20.2245 94.1343 17.2041 97.8576 17.2041C101.325 17.2041 104.278 19.8984 104.581 23.3399C104.6 23.5663 104.61 23.7585 104.61 23.9411C104.61 24.1236 104.6 24.3208 104.581 24.5447L104.566 24.7078C104.542 24.9706 104.325 25.1678 104.062 25.1678H97.0828C95.8668 25.1678 94.6728 25.5742 94.1831 26.1559C94.9579 27.4313 96.3664 28.2271 97.8576 28.2271C99.1223 28.2271 100.316 27.6747 101.13 26.7084L101.228 26.594C101.325 26.4796 101.466 26.4139 101.615 26.4139C101.703 26.4139 101.791 26.4382 101.869 26.4821L103.128 27.2073C103.257 27.2804 103.345 27.4069 103.372 27.5505C103.399 27.6966 103.362 27.845 103.27 27.9594L103.14 28.1225C101.847 29.7483 99.9216 30.6805 97.8552 30.6805L97.8576 30.6878ZM97.8576 19.6623C95.6232 19.6623 93.781 21.3733 93.5812 23.5517C94.5583 23.0113 95.7791 22.7168 97.0803 22.7168H101.971C101.44 20.9036 99.79 19.6623 97.8576 19.6623Z" fill="white"/>
<path d="M106.872 30.6903C106.591 30.6903 106.365 30.464 106.365 30.1841V17.8589C106.365 17.579 106.591 17.3527 106.872 17.3527H108.36C108.641 17.3527 108.867 17.579 108.867 17.8589V30.1841C108.867 30.464 108.641 30.6903 108.36 30.6903H106.872ZM107.617 15.4323C107.254 15.4323 106.886 15.3058 106.555 15.0648C106.511 15.0332 106.47 14.9918 106.438 14.948C106.033 14.3931 105.958 13.7335 106.236 13.1859C106.501 12.665 107.03 12.3389 107.617 12.3389C107.98 12.3389 108.348 12.4654 108.68 12.7088C108.724 12.7405 108.765 12.7818 108.797 12.8256C109.201 13.3806 109.277 14.0401 108.996 14.5878C108.731 15.1086 108.202 15.4348 107.615 15.4348L107.617 15.4323Z" fill="white"/>
<path d="M110.806 35.5556L110.772 35.3365C110.772 35.3365 110.767 35.3049 110.767 35.2343C110.755 34.9081 110.735 29.3467 110.75 28.5947C110.777 27.3875 110.901 25.5694 111.357 23.7683C111.303 23.5711 111.257 23.3691 111.21 23.172L111.201 23.1282C110.672 20.7308 110.652 18.5403 110.667 17.7079C110.672 17.4305 110.901 17.2065 111.174 17.2065H112.668C112.811 17.2065 112.948 17.2674 113.043 17.372C113.138 17.4767 113.184 17.6203 113.172 17.7615C113.162 17.8637 113.152 17.9683 113.145 18.073C113.101 18.6693 113.099 19.2778 113.14 19.8789C113.43 19.5066 113.754 19.1829 114.1 18.9127C114.105 18.9078 114.113 18.903 114.117 18.8981C115.277 17.871 116.791 17.3063 118.374 17.3063C119.464 17.3063 120.531 17.5814 121.462 18.1022C123.672 19.3386 125.024 21.9672 124.751 24.4936C124.476 27.0053 122.595 29.2932 120.178 30.055C119.576 30.2448 118.891 30.3446 118.194 30.3446C116.359 30.3446 114.697 29.6899 113.635 28.546C113.564 28.473 113.503 28.4024 113.447 28.3318L113.133 27.9497C113.109 28.3805 113.104 28.8186 113.123 29.2494C113.128 29.3808 113.135 30.184 113.145 31.1989C113.157 32.6081 113.174 34.363 113.191 35.0274C113.196 35.1661 113.145 35.2951 113.048 35.3949C112.95 35.4947 112.824 35.5483 112.685 35.5483H110.808L110.806 35.5556ZM113.91 24.0044C114.3 25.9174 116.052 27.8986 118.313 27.8986C118.489 27.8986 118.664 27.8864 118.837 27.8596C120.604 27.6162 122.098 26.1024 122.317 24.3378C122.539 22.5732 121.454 20.7381 119.8 20.0688C119.313 19.8716 118.815 19.7719 118.321 19.7719C117.731 19.7719 117.156 19.9155 116.61 20.1978L116.579 20.2148C115.297 20.889 114.278 22.2982 113.918 23.8948V23.9021L113.903 23.9679L113.91 24.0019V24.0044Z" fill="white"/>
<path d="M131.089 30.6879C128.588 30.6879 126.551 28.6556 126.551 26.156V19.5188H125.323C125.043 19.5188 124.816 19.2925 124.816 19.015V17.8565C124.816 17.5766 125.043 17.3502 125.323 17.3502H126.554V12.8451C126.554 12.5652 126.78 12.3389 127.058 12.3389H128.549C128.83 12.3389 129.056 12.5652 129.056 12.8451V17.3527H131.274C131.554 17.3527 131.781 17.579 131.781 17.8565V19.015C131.781 19.2949 131.554 19.5212 131.274 19.5212H129.054V26.0903C129.054 27.2293 129.973 28.1591 131.11 28.181H131.644C131.924 28.181 132.151 28.4073 132.151 28.6872V30.1792C132.151 30.4591 131.924 30.6855 131.644 30.6855H131.086L131.089 30.6879Z" fill="white"/>
<path d="M134.085 30.6879C133.805 30.6879 133.578 30.4615 133.578 30.1816V12.8451C133.578 12.5652 133.805 12.3389 134.085 12.3389H135.576C135.856 12.3389 136.083 12.5652 136.083 12.8451V28.1834H137.83V30.1816C137.83 30.4615 137.604 30.6879 137.323 30.6879H134.085Z" fill="white"/>
<path d="M141.046 34.9836C140.873 34.9836 140.715 34.8984 140.622 34.7524C140.527 34.6088 140.515 34.4287 140.583 34.2705L142.676 29.5658L137.493 17.9172C137.423 17.759 137.437 17.5789 137.532 17.4353C137.628 17.2917 137.786 17.2041 137.959 17.2041H139.64C139.84 17.2041 140.023 17.3209 140.103 17.5059L144.075 26.4309L148.04 17.5083C148.12 17.3258 148.303 17.2065 148.503 17.2065H150.189C150.362 17.2065 150.52 17.2917 150.615 17.4378C150.71 17.5814 150.722 17.7615 150.654 17.9197L143.461 34.0831L143.195 34.6842C143.115 34.8668 142.932 34.986 142.732 34.986H141.051L141.046 34.9836Z" fill="white"/>
<path d="M60.8911 31.138C60.6377 31.138 60.3989 31.0382 60.221 30.8581C60.0431 30.678 59.9457 30.4395 59.9457 30.1864C59.9457 25.7908 56.7438 22.2178 52.8085 22.2178H51.2344C50.9858 22.2178 50.7811 22.4198 50.7811 22.6705V30.1937C50.7811 30.7145 50.3571 31.138 49.8357 31.138H48.8634C48.342 31.138 47.918 30.7145 47.918 30.1937V10.3916C47.918 9.87076 48.342 9.44727 48.8634 9.44727H56.3515C59.8969 9.44727 62.8088 12.2827 62.8429 15.7681C62.8697 18.3309 61.3541 20.6553 59.0343 21.6799C61.4272 23.7293 62.8429 26.8738 62.8429 30.1815V30.2034C62.8429 30.7194 62.4165 31.1404 61.8975 31.1404H60.8936L60.8911 31.138ZM56.3685 19.3264C58.2863 19.3264 59.8896 17.8052 59.9432 15.936C59.97 14.9843 59.6191 14.0838 58.9564 13.3999C58.2911 12.716 57.4017 12.3411 56.449 12.3411H50.8128V19.3264H56.3685Z" fill="white"/>
</g>
<defs>
<clipPath id="clip0_2057_46617">
<rect width="149" height="45.0024" fill="white"/>
</clipPath>
</defs>
</svg>
