<?xml version="1.0" encoding="UTF-8"?>
<svg xmlns="http://www.w3.org/2000/svg" version="1.1" viewBox="0 0 285.1 285.1">
  <defs>
    <style>
      .cls-1 {
        fill: #2e39e6;
      }
    </style>
  </defs>
  <!-- Generator: Adobe Illustrator 28.7.1, SVG Export Plug-In . SVG Version: 1.2.0 Build 142)  -->
  <g>
    <g id="Layer_1">
      <rect x="-316.1" y="-25.6" width="285.1" height="285.1"/>
      <g id="Layer_1-2" data-name="Layer_1">
        <g>
          <path class="cls-1" d="M212.8,99.5v.7h0v.3-1.3.3h0Z"/>
          <path class="cls-1" d="M224.8,228.7l-12.1-128.2h0v-.2h0v-1.1h0c0-28.8-21.3-53.3-49.6-57h-96.6c-3.5,0-6.4,2.9-6.4,6.4v159.6c0,3.5,2.9,6.4,6.4,6.4h119l14.8,22.1c2.4,4,6.6,6.4,11.2,6.4h.5c5-.2,9.4-3.1,11.5-7.4,1-2.1,1.4-4.5,1.2-6.9h.1ZM73,201.7V54.8h89c10.4,1.5,19.9,6.7,26.9,14.8,7.1,8.2,11.1,18.6,11.1,29.4v1.6h0c-.5,9.6-6.2,19.6-16.1,28.4-9.8,8.7-22.4,14.8-33.6,16.2h0c-.6,0-1.1.2-1.7.5h-.2c-.3.1-.5.3-.8.4h0s-.2.1-.2.2h0s-.1,0-.2.1l-.2.2c0,0,0,0,0,0,0,0-.2.1-.2.2h0l-.2.2s-.1.2-.2.3l-.2.2h-.1c0,.2-.1.3-.2.4,0,0,0,.1-.1.2v.2c0,.1-.1.2-.2.4,0,.1-.1.2-.1.4s0,.2-.1.3h0v.3h0v.5h0v.3h0v1.9h0c0,.2.1.4.2.7v.2c0,.1.1.3.2.4h0c0,.1.1.3.2.4.1.2.2.4.4.6l31.2,46.6h-104l-.6.4ZM212.1,230.1s-.2.1-.4.2c-.1,0-.2,0-.3-.2,0-.1-.1-.2-.2-.4l-16.8-25.1-32.7-48.8c10.8-3.2,21.7-9.3,30.7-17.2,3.9-3.5,7.4-7.2,10.2-11l9.6,102.3v.2h-.1Z"/>
        </g>
      </g>
    </g>
  </g>
</svg>