<svg width="47" height="47" viewBox="0 0 47 47" fill="none" xmlns="http://www.w3.org/2000/svg">
<rect x="0.712891" y="0.817154" width="45.8057" height="45.8057" rx="3.81714" fill="#ECFDF3"/>
<path d="M33.1628 22.5274C33.554 22.5274 33.8785 22.2029 33.8785 21.8117V20.8574C33.8785 16.649 32.5997 15.3702 28.3913 15.3702H22.427V17.5174C22.427 17.9086 22.1026 18.2331 21.7113 18.2331C21.3201 18.2331 20.9956 17.9086 20.9956 17.5174V15.3702H18.8485C14.6401 15.3702 13.3613 16.649 13.3613 20.8574V21.3345C13.3613 21.7258 13.6858 22.0502 14.077 22.0502C14.9932 22.0502 15.747 22.8041 15.747 23.7202C15.747 24.6364 14.9932 25.3902 14.077 25.3902C13.6858 25.3902 13.3613 25.7147 13.3613 26.106V26.5831C13.3613 30.7915 14.6401 32.0702 18.8485 32.0702H20.9956V29.9231C20.9956 29.5318 21.3201 29.2074 21.7113 29.2074C22.1026 29.2074 22.427 29.5318 22.427 29.9231V32.0702H28.3913C32.5997 32.0702 33.8785 30.7915 33.8785 26.5831C33.8785 26.1918 33.554 25.8674 33.1628 25.8674C32.2466 25.8674 31.4928 25.1135 31.4928 24.1974C31.4928 23.2813 32.2466 22.5274 33.1628 22.5274ZM22.427 25.791C22.427 26.1823 22.1026 26.5068 21.7113 26.5068C21.3201 26.5068 20.9956 26.1823 20.9956 25.791V21.6494C20.9956 21.2582 21.3201 20.9337 21.7113 20.9337C22.1026 20.9337 22.427 21.2582 22.427 21.6494V25.791Z" fill="#039754"/>
</svg>
