<?xml version="1.0" encoding="UTF-8"?>
<svg xmlns="http://www.w3.org/2000/svg" xmlns:xlink="http://www.w3.org/1999/xlink" version="1.1" viewBox="0 0 28.2 28.2">
  <defs>
    <style>
      .cls-1, .cls-2 {
        fill: none;
      }

      .cls-3 {
        fill: #b8c2ff;
      }

      .cls-2 {
        stroke: #5861eb;
        stroke-linecap: round;
        stroke-linejoin: round;
        stroke-width: 1.7px;
      }

      .cls-4 {
        fill: #d0d8fd;
      }

      .cls-5 {
        clip-path: url(#clippath);
      }
    </style>
    <clipPath id="clippath">
      <rect class="cls-1" x="5.6" y="5.6" width="17" height="17"/>
    </clipPath>
  </defs>
  <!-- Generator: Adobe Illustrator 28.7.1, SVG Export Plug-In . SVG Version: 1.2.0 Build 142)  -->
  <g>
    <g id="Layer_1">
      <circle class="cls-4" cx="14.1" cy="14.1" r="14.1"/>
      <circle class="cls-3" cx="14.1" cy="14.5" r="10.4"/>
      <g class="cls-5">
        <g id="upload-cloud">
          <path id="Icon" class="cls-2" d="M16.9,16.9l-2.8-2.8M14.1,14.1l-2.8,2.8M14.1,14.1v6.4M20,18.6c.7-.4,1.2-1,1.6-1.7.3-.7.4-1.5.2-2.3-.2-.8-.6-1.4-1.3-1.9-.6-.5-1.4-.7-2.2-.7h-.9c-.2-.8-.6-1.6-1.2-2.3-.6-.7-1.3-1.2-2-1.5-.8-.3-1.6-.5-2.5-.5-.9,0-1.7.3-2.5.7-.8.4-1.4,1-1.9,1.7-.5.7-.8,1.5-1,2.3-.2.8-.1,1.7.1,2.5.2.8.6,1.6,1.2,2.2"/>
        </g>
      </g>
    </g>
  </g>
</svg>