<svg width="754" height="195" viewBox="0 0 754 195" fill="none" xmlns="http://www.w3.org/2000/svg">
<g opacity="0.218">
<path opacity="0.54" d="M850.52 296.444C861.601 270.463 846.853 237.373 824.905 223.735C802.956 210.097 776.562 211.221 751.898 214.999C727.234 218.777 702.219 224.813 677.714 219.835C627.006 209.519 592.268 156.016 564.084 105.792C535.899 55.5691 504.653 0.572388 455.228 -16.2284C416.476 -29.3929 375.132 -15.7394 334.775 -16.2172C264.324 -17.0447 195.661 -64.9474 161.734 -136.975" stroke="#2E39E6" stroke-width="0.866727" stroke-miterlimit="10"/>
<path opacity="0.54" d="M848.968 304.063C860.054 278.121 845.523 245.065 823.746 231.185C821.801 229.939 819.813 228.832 817.799 227.797C797.263 217.458 773.453 218.377 751.029 221.507C746.706 222.108 742.357 222.78 738.017 223.456C717.632 226.627 697.105 229.778 676.956 225.554C670.527 224.206 664.223 222.147 658.129 219.404C617.487 201.209 588.145 154.959 563.916 111.056C562.16 107.863 560.389 104.658 558.603 101.439C532.184 53.8289 502.449 5.00327 457.29 -12.5064C444.39 -17.4503 430.92 -20.0726 417.343 -20.2829C401.073 -20.6513 384.453 -18.0784 368.113 -15.7609C356.95 -14.1777 345.873 -12.7231 334.803 -12.3335C329.599 -12.151 324.392 -12.2307 319.182 -12.5726C285.58 -15.1521 253.138 -27.9204 225.066 -49.6141C196.789 -71.1883 173.559 -100.631 157.471 -135.288" stroke="#2E39E6" stroke-width="0.866727" stroke-miterlimit="10"/>
<path opacity="0.54" d="M847.415 311.682C858.515 285.765 844.202 252.755 822.597 238.633C820.662 237.37 818.695 236.221 816.694 235.183C796.298 224.625 772.561 225.213 750.157 228.027C745.826 228.579 741.505 229.191 737.165 229.811C716.808 232.718 696.299 235.646 676.193 231.302C669.774 229.915 663.481 227.826 657.397 225.062C616.804 206.678 587.636 160.413 563.733 116.347C561.997 113.148 560.25 109.925 558.496 106.701C532.482 58.9326 503.344 10.4671 459.311 -8.7375C446.441 -14.503 432.862 -17.8197 419.09 -18.561C402.405 -19.3681 385.22 -16.3589 368.601 -13.3782C357.26 -11.3474 346.049 -9.3326 334.804 -8.42513C329.51 -8.0044 324.215 -7.84115 318.896 -7.98414C284.998 -8.88267 250.797 -22.3702 221.964 -44.6628C193.019 -67.1282 169.372 -97.7082 153.191 -133.599" stroke="#2E39E6" stroke-width="0.866727" stroke-miterlimit="10"/>
<path opacity="0.54" d="M845.872 319.299C856.981 293.426 842.893 260.448 821.447 246.097C819.534 244.817 817.579 243.646 815.584 242.583C795.314 231.792 771.663 232.048 749.28 234.559C744.967 235.049 740.63 235.602 736.304 236.161C715.973 238.802 695.479 241.51 675.42 237.047C669.016 235.624 662.739 233.508 656.672 230.727C616.144 212.168 587.136 165.877 563.554 121.644L558.396 111.966C532.788 64.0257 504.226 15.8795 461.349 -4.98154C448.524 -11.5666 434.834 -15.5699 420.862 -16.8213C403.753 -18.0806 386.01 -14.6191 369.115 -10.9652C357.579 -8.48304 346.247 -5.89584 334.829 -4.48824C329.46 -3.81876 324.067 -3.42981 318.633 -3.37336C283.999 -2.97688 248.46 -16.579 218.888 -39.675C189.279 -63.044 165.216 -94.764 148.935 -131.887" stroke="#2E39E6" stroke-width="0.866727" stroke-miterlimit="10"/>
<path opacity="0.54" d="M844.32 326.932C855.434 301.081 841.564 268.149 820.302 253.558C818.397 252.25 816.462 251.069 814.487 249.98C794.355 238.963 770.781 238.893 748.418 241.098C744.106 241.521 739.784 242.026 735.45 242.535C715.146 244.912 694.661 247.384 674.643 242.819C668.251 241.36 661.99 239.214 655.938 236.409C615.462 217.672 586.636 171.344 563.361 126.962C561.669 123.736 559.975 120.496 558.281 117.24C533.079 69.1432 505.096 21.2236 463.374 -1.20539C450.598 -8.08046 437.424 -13.6578 422.622 -15.0705C405.077 -16.777 386.787 -12.8703 369.617 -8.55601C357.9 -5.61067 346.434 -2.47609 334.831 -0.550698C329.383 0.35548 323.886 0.969245 318.335 1.24497C282.968 2.94644 246.087 -10.7927 215.778 -34.6798C185.501 -58.9476 161.019 -91.8058 144.638 -130.159" stroke="#2E39E6" stroke-width="0.866727" stroke-miterlimit="10"/>
<path opacity="0.54" d="M842.768 334.551C853.897 308.737 840.241 275.83 819.153 261.004C817.267 259.677 815.341 258.464 813.374 257.364C793.377 246.103 769.882 245.725 747.537 247.615C743.228 247.981 738.908 248.434 734.59 248.884C714.315 251.004 693.839 253.25 673.872 248.56C667.491 247.066 661.241 244.891 655.201 242.064C614.777 223.138 586.123 176.8 563.169 132.252C561.496 129.01 559.836 125.768 558.161 122.501C533.371 74.2449 505.954 26.488 465.392 2.54995C452.638 -4.97234 439.521 -11.555 424.372 -13.3551C406.406 -15.5012 387.556 -11.1548 370.094 -6.17657C358.181 -2.77979 346.586 0.916282 334.821 3.35229C329.267 4.51193 323.665 5.33607 318.038 5.82145C281.935 8.81792 243.717 -5.02957 212.669 -29.7264C181.571 -54.4615 157.092 -89.1937 140.344 -128.473" stroke="#2E39E6" stroke-width="0.866727" stroke-miterlimit="10"/>
<path opacity="0.54" d="M841.212 342.17C852.348 316.381 838.921 283.517 817.994 268.458C816.129 267.113 814.211 265.875 812.264 264.752C792.395 253.279 768.982 252.548 746.672 254.151C742.364 254.459 738.057 254.842 733.741 255.238C713.5 257.091 693.038 259.108 673.112 254.304C666.743 252.766 660.508 250.559 654.48 247.711C614.109 228.61 585.629 182.233 562.996 137.533C561.348 134.286 559.704 131.026 558.065 127.75C533.676 79.3364 506.828 31.6706 467.434 6.3056C454.715 -1.87741 441.644 -9.47586 426.141 -11.6337C407.752 -14.2277 388.345 -9.43574 370.608 -3.78222C358.512 0.0632461 346.785 4.31917 334.846 7.27268C329.205 8.68416 323.503 9.73557 317.764 10.4223C280.927 14.7113 241.365 0.733363 209.583 -24.7507C177.746 -50.2765 153.02 -86.3248 136.082 -126.765" stroke="#2E39E6" stroke-width="0.866727" stroke-miterlimit="10"/>
<path opacity="0.54" d="M839.671 349.787C850.824 324.039 837.602 291.207 816.858 275.915C815.001 274.554 813.103 273.298 811.163 272.147C791.432 260.431 768.094 259.391 745.805 260.669C741.512 260.923 737.196 261.252 732.894 261.591C712.664 263.189 692.228 264.969 672.353 260.054C665.998 258.486 659.778 256.249 653.768 253.373C613.452 234.1 585.137 187.7 562.831 142.83C561.214 139.564 559.596 136.293 557.978 133.017C533.996 84.4449 507.736 36.8017 469.487 10.0641C456.794 1.19417 443.781 -7.35988 427.927 -9.90432C409.113 -12.952 389.149 -7.70627 371.132 -1.39365C358.837 2.90611 346.994 7.71826 334.863 11.1891C329.14 12.8454 323.341 14.1233 317.494 15.0167C279.922 20.6132 239.021 6.50824 206.5 -19.7793C173.925 -46.1086 148.954 -83.4517 131.816 -125.062" stroke="#2E39E6" stroke-width="0.866727" stroke-miterlimit="10"/>
<path opacity="0.54" d="M838.119 357.421C849.276 331.71 836.277 298.913 815.7 283.379C813.862 281.986 811.973 280.715 810.054 279.545C790.448 267.597 767.211 266.224 744.928 267.2C740.635 267.386 736.334 267.656 732.034 267.939C711.83 269.272 691.407 270.832 671.582 265.801C665.237 264.198 659.029 261.937 653.03 259.045C612.776 239.587 584.622 193.155 562.642 148.134C561.048 144.863 559.454 141.577 557.862 138.275C534.298 89.5438 508.618 41.8775 471.504 13.8277C458.839 4.25557 445.866 -5.25931 429.681 -8.16654C410.446 -11.6477 389.921 -5.97046 371.629 1.00462C359.152 5.75267 347.178 11.1375 334.873 15.1279C329.068 17.028 323.173 18.5316 317.218 19.6311C278.918 26.5185 236.679 12.2861 203.41 -14.7877C170.1 -41.9083 144.876 -80.5705 127.541 -123.336" stroke="#2E39E6" stroke-width="0.866727" stroke-miterlimit="10"/>
<path opacity="0.54" d="M836.566 365.039C847.74 339.35 834.953 306.603 814.551 290.827C812.725 289.419 810.856 288.119 808.944 286.93C789.483 274.761 766.324 273.054 744.06 273.726C739.771 273.855 735.472 274.071 731.174 274.3C710.997 275.369 690.595 276.705 670.811 271.555C664.48 269.915 658.287 267.623 652.303 264.706C612.101 245.065 584.119 198.616 562.452 153.431C560.879 150.155 559.314 146.849 557.749 143.545C534.592 94.6544 509.516 46.8976 473.543 17.601C460.913 7.31431 447.984 -3.15346 431.448 -6.43201C411.79 -10.3697 390.705 -4.24865 372.123 3.40072C359.453 8.61471 347.357 14.5441 334.878 19.0479C328.992 21.1992 322.999 22.9298 316.932 24.23C277.892 32.4326 234.318 18.0679 200.312 -9.81189C166.264 -37.7319 140.784 -77.6932 123.258 -121.628" stroke="#2E39E6" stroke-width="0.866727" stroke-miterlimit="10"/>
<path opacity="0.54" d="M835.012 372.659C846.194 347.009 833.63 314.281 813.404 298.288C811.595 296.862 809.741 295.542 807.842 294.327C788.51 281.924 765.425 279.889 743.185 280.265C738.911 280.34 734.611 280.498 730.318 280.672C710.17 281.49 689.776 282.579 670.042 277.322C663.724 275.648 657.544 273.325 651.577 270.381C611.429 250.565 583.618 204.094 562.274 158.738C560.722 155.444 559.18 152.137 557.648 148.82C534.895 99.7735 510.439 51.8645 475.575 21.3666C462.978 10.3484 450.099 -1.04108 433.209 -4.69055C413.127 -9.07992 391.485 -2.5092 372.627 5.81547C359.762 11.4809 347.547 17.9695 334.894 22.9887C328.925 25.3847 322.832 27.3417 316.653 28.8482C276.877 38.3393 231.962 23.8521 197.218 -4.83118C162.431 -33.5439 136.709 -74.8092 118.979 -119.913" stroke="#2E39E6" stroke-width="0.866727" stroke-miterlimit="10"/>
<path opacity="0.54" d="M833.467 380.277C844.668 354.651 832.323 321.969 812.255 305.737C810.476 304.288 808.636 302.944 806.741 301.71C787.538 289.074 764.539 286.719 742.328 286.779C738.056 286.796 733.76 286.889 729.471 287.006C709.35 287.557 688.966 288.427 669.272 283.054C662.965 281.342 656.798 278.99 650.841 276.027C610.748 256.02 583.112 209.523 562.084 164.018C560.552 160.72 559.043 157.386 557.533 154.057C535.19 104.858 511.379 56.7591 477.6 25.1102C465.045 13.3482 452.204 1.03715 434.971 -2.98768C414.468 -7.81459 392.265 -0.806198 373.13 8.17924C360.081 14.2871 347.735 21.3417 334.908 26.8764C328.856 29.5236 322.663 31.7075 316.367 33.4143C275.855 44.1983 229.599 29.5865 194.12 0.111787C158.599 -29.3944 132.627 -71.9667 114.696 -118.238" stroke="#2E39E6" stroke-width="0.866727" stroke-miterlimit="10"/>
<path opacity="0.54" d="M831.916 387.909C843.125 362.323 830.99 329.678 811.105 313.199C809.324 311.73 807.498 310.363 805.626 309.097C786.558 296.227 763.634 293.543 741.446 293.299C737.173 293.249 732.894 293.295 728.616 293.356C708.522 293.644 688.16 294.288 668.507 288.798C662.212 287.048 656.059 284.665 650.117 281.676C610.073 261.494 582.614 214.963 561.907 169.301C560.397 165.983 558.906 162.652 557.433 159.308C535.494 109.929 512.358 61.6082 479.639 28.8528C467.124 16.332 454.313 3.12919 436.74 -1.26931C415.804 -6.54631 393.051 0.910186 373.628 10.5608C360.385 17.1264 347.908 24.7491 334.906 30.7864C328.775 33.6767 322.485 36.0873 316.079 38.0023C274.834 50.0933 227.231 35.356 191.018 5.07047C154.76 -25.2396 128.541 -69.1064 110.421 -116.539" stroke="#2E39E6" stroke-width="0.866727" stroke-miterlimit="10"/>
<path opacity="0.54" d="M830.365 395.528C841.583 369.965 829.671 337.365 809.946 320.649C808.185 319.158 806.374 317.768 804.514 316.479C785.574 303.383 762.737 300.376 740.561 299.829C736.29 299.725 732.024 299.7 727.748 299.719C707.674 299.745 687.328 300.156 667.726 294.556C661.444 292.772 655.305 290.359 649.379 287.344C609.399 266.986 582.099 220.429 561.719 174.601C560.244 171.275 558.777 167.921 557.327 164.577C535.793 115.042 513.35 66.4517 481.662 32.639C469.209 19.3419 456.415 5.24797 438.489 0.47855C417.137 -5.25208 393.82 2.65776 374.12 12.982C360.694 20.0112 348.087 28.1912 334.909 34.7315C328.697 37.8593 322.311 40.4958 315.795 42.623C273.814 56.007 224.877 41.1436 187.923 10.0743C150.93 -21.0293 124.466 -66.2018 106.144 -114.814" stroke="#2E39E6" stroke-width="0.866727" stroke-miterlimit="10"/>
<path opacity="0.54" d="M828.822 403.143C840.045 377.622 828.361 345.051 808.807 328.106C807.068 326.595 805.26 325.184 803.422 323.874C784.621 310.55 761.857 307.204 739.709 306.35C735.447 306.191 731.177 306.112 726.905 306.062C706.856 305.835 686.523 306.011 666.972 300.292C660.702 298.469 654.576 296.032 648.657 293.007C608.73 272.474 581.603 225.892 561.534 179.903C560.078 176.559 558.633 173.201 557.212 169.85C536.087 120.167 514.354 71.2625 483.684 36.3932C471.289 22.3057 458.517 7.34974 440.253 2.20586C418.48 -3.9623 394.613 4.38072 374.625 15.3681C361.005 22.8504 348.275 31.5775 334.915 38.6459C328.624 42.0261 322.139 44.8915 315.506 47.2212C272.787 61.8986 222.515 46.9222 184.822 15.0495C147.089 -16.8572 120.377 -63.3263 101.853 -113.108" stroke="#2E39E6" stroke-width="0.866727" stroke-miterlimit="10"/>
<path opacity="0.54" d="M827.269 410.763C838.509 385.264 827.028 352.746 807.656 335.556C805.922 334.019 804.14 332.587 802.308 331.26C783.633 317.704 760.957 314.038 738.839 312.866C734.585 312.649 730.323 312.515 726.055 312.408C706.033 311.917 685.723 311.873 666.21 306.034C659.954 304.176 653.844 301.708 647.942 298.655C608.067 277.932 581.111 231.327 561.367 185.184C559.935 181.836 558.52 178.47 557.121 175.087C536.402 125.235 515.411 76.0031 485.734 40.1365C473.42 25.2555 460.649 9.42692 442.031 3.91044C419.834 -2.70771 395.412 6.08459 375.143 17.7335C361.338 25.6628 348.478 34.9515 334.946 42.537C328.574 46.1588 321.991 49.2492 315.245 51.7849C271.793 67.7693 220.176 52.6542 181.747 19.9905C143.276 -12.7069 116.318 -60.4837 97.5924 -111.428" stroke="#2E39E6" stroke-width="0.866727" stroke-miterlimit="10"/>
<path opacity="0.54" d="M825.72 418.395C836.965 392.936 825.713 360.435 806.505 343.018C804.792 341.462 803.025 340.008 801.206 338.658C782.668 324.867 760.069 320.884 737.972 319.408C733.72 319.122 729.459 318.927 725.204 318.77C705.209 318.014 684.907 317.734 665.447 311.789C659.205 309.894 653.109 307.395 647.223 304.318C607.4 283.42 580.617 236.79 561.196 190.479C559.789 187.114 558.399 183.737 557.026 180.35C536.712 130.341 516.493 80.7606 487.777 43.889C475.554 28.1972 462.763 11.5288 443.798 5.63775C421.176 -1.43206 396.195 7.81035 375.637 20.1224C361.638 28.5052 348.66 38.3634 334.951 46.4498C328.505 50.3195 321.825 53.6361 314.965 56.3733C270.776 73.6506 217.822 58.423 178.654 24.9537C139.446 -8.54752 112.242 -57.6192 93.3141 -109.732" stroke="#2E39E6" stroke-width="0.866727" stroke-miterlimit="10"/>
<path opacity="0.54" d="M824.165 426.015C835.415 400.583 824.392 368.126 805.355 350.48C803.651 348.908 801.911 347.426 800.091 346.058C781.692 332.045 759.165 327.722 737.09 325.938C732.839 325.589 728.595 325.35 724.343 325.133C704.375 324.112 684.083 323.611 664.678 317.553C658.446 315.624 652.361 313.095 646.488 309.993C606.72 288.923 580.106 242.265 561.007 195.788C559.617 192.418 558.26 189.022 556.917 185.628C537.01 135.461 517.594 85.5118 489.807 47.6741C477.683 31.1567 464.873 13.6568 445.576 7.39677C422.533 -0.110588 396.993 9.56905 376.158 22.5548C361.975 31.3862 348.866 41.8063 334.972 50.4105C328.444 54.5236 321.663 58.0681 314.686 61.0148C269.763 79.5996 215.465 64.2329 175.563 29.9721C135.62 -4.32056 108.167 -54.7013 89.0485 -107.984" stroke="#2E39E6" stroke-width="0.866727" stroke-miterlimit="10"/>
<path opacity="0.54" d="M822.622 433.633C833.892 408.237 823.072 375.817 804.207 357.929C802.522 356.328 800.784 354.832 798.992 353.44C780.719 339.196 758.282 334.552 736.225 332.466C731.99 332.066 727.734 331.754 723.497 331.492C703.555 330.198 683.287 329.485 663.906 323.303C657.688 321.335 651.619 318.776 645.758 315.652C606.051 294.389 579.598 247.712 560.822 201.082C559.453 197.693 558.115 194.296 556.806 190.893C537.307 140.569 518.706 90.2204 491.836 51.4346C479.823 34.0894 466.982 15.7541 447.328 9.11939C423.862 1.15998 397.759 11.2714 376.652 24.9383C362.275 34.2357 349.034 45.2006 334.983 54.3317C328.377 58.6876 321.5 62.4582 314.41 65.6115C268.739 85.4916 213.115 70.01 172.472 34.9334C131.793 -0.150362 104.093 -51.8364 84.7736 -106.289" stroke="#2E39E6" stroke-width="0.866727" stroke-miterlimit="10"/>
<path opacity="0.54" d="M821.069 441.251C832.341 415.882 821.751 383.506 803.06 365.375C801.395 363.754 799.665 362.244 797.899 360.821C779.765 346.342 757.401 341.368 735.366 338.985C731.133 338.531 726.892 338.16 722.644 337.832C702.732 336.294 682.471 335.328 663.139 329.024C656.937 327.019 650.884 324.435 645.038 321.299C605.385 299.86 579.114 253.162 560.643 206.364C559.308 202.966 557.983 199.553 556.69 196.133C537.596 145.651 519.84 94.9111 493.859 55.1765C481.98 36.9982 469.085 17.8307 449.075 10.8365C425.185 2.42508 398.526 12.9904 377.138 27.3142C362.566 37.063 349.206 48.5871 334.979 58.2319C328.294 62.8356 321.316 66.8334 314.107 70.1901C267.7 91.3673 210.737 75.7566 169.358 39.893C127.94 4.00581 99.985 -48.9645 80.4802 -104.592" stroke="#2E39E6" stroke-width="0.866727" stroke-miterlimit="10"/>
<path opacity="0.54" d="M819.518 448.884C830.811 423.552 820.437 391.21 801.908 372.839C800.251 371.2 798.541 369.662 796.777 368.224C778.769 353.526 756.5 348.215 734.486 345.51C730.253 344.987 726.018 344.576 721.783 344.189C701.898 342.386 681.647 341.196 662.366 334.769C656.177 332.728 650.137 330.112 644.306 326.946C604.705 305.331 578.605 258.589 560.457 211.642C559.143 208.227 557.85 204.807 556.579 201.382C537.901 150.728 521.005 99.6044 495.889 58.929C484.141 39.9181 471.185 19.9326 450.85 12.5485C426.537 3.69986 399.319 14.7045 377.645 29.7018C362.888 39.8997 349.4 51.9849 334.988 62.1475C328.226 66.9894 321.153 71.2112 313.831 74.7747C266.691 97.2568 208.385 81.522 166.269 44.8504C124.115 8.17211 95.9081 -46.1283 76.1995 -102.907" stroke="#2E39E6" stroke-width="0.866727" stroke-miterlimit="10"/>
<path opacity="0.54" d="M817.965 456.504C829.259 431.2 819.1 398.891 800.751 380.303C799.115 378.647 797.41 377.075 795.668 375.626C777.797 360.693 755.595 355.054 733.612 352.056C729.384 351.487 725.151 350.998 720.928 350.563C701.067 348.497 680.842 347.082 661.602 340.545C655.424 338.465 649.397 335.82 643.576 332.635C604.027 310.837 578.094 264.086 560.273 216.974C558.98 213.554 557.711 210.116 556.475 206.683C538.203 155.868 522.197 104.334 497.923 62.7222C486.331 42.8582 473.3 22.058 452.613 14.3154C427.877 5.01469 400.098 16.4743 378.144 32.1308C363.192 42.7801 349.585 55.4373 334.998 66.1004C328.16 71.1877 320.989 75.6388 313.552 79.4122C265.676 103.187 206.041 87.3251 163.176 49.8631C120.31 12.4011 91.8415 -43.2313 71.9229 -101.177" stroke="#2E39E6" stroke-width="0.866727" stroke-miterlimit="10"/>
<path opacity="0.54" d="M816.423 464.12C827.734 438.846 817.794 406.577 799.615 387.747C797.991 386.062 796.312 384.48 794.58 383.001C776.846 367.834 754.72 361.879 732.756 358.561C728.541 357.925 724.307 357.392 720.09 356.891C700.246 354.561 680.041 352.925 660.851 346.267C654.686 344.156 648.672 341.481 642.868 338.266C603.375 316.288 577.611 269.499 560.116 222.232C558.844 218.789 557.603 215.348 556.393 211.907C538.529 160.933 523.454 108.989 499.982 66.4523C488.555 45.7483 475.44 24.1352 454.398 16.0071C429.235 6.25519 400.905 18.1675 378.674 34.4802C363.534 45.5943 349.8 58.7952 335.028 69.9782C328.113 75.3129 320.842 79.992 313.285 83.9704C264.678 109.039 203.7 93.0637 160.096 54.7982C116.492 16.5327 87.7675 -40.3773 67.6677 -99.4951" stroke="#2E39E6" stroke-width="0.866727" stroke-miterlimit="10"/>
<path opacity="0.54" d="M814.868 471.741C826.185 446.498 816.472 414.269 798.453 395.199C796.844 393.498 795.178 391.895 793.453 390.39C775.846 374.991 753.806 368.705 731.87 365.093C727.658 364.403 723.444 363.791 719.23 363.256C699.402 360.678 679.202 358.796 660.072 352.03C653.921 349.878 647.922 347.172 642.13 343.936C602.7 321.782 577.1 274.973 559.927 227.537C558.679 224.095 557.46 220.63 556.281 217.172C538.819 166.034 524.672 113.702 501.999 70.2089C490.757 48.6455 477.534 26.2268 456.156 17.7371C430.554 7.55155 401.683 19.8992 379.16 36.8738C363.832 48.4377 349.973 62.1969 335.027 73.8953C328.033 79.4665 320.665 84.3718 312.995 88.5635C263.651 114.943 201.334 98.8248 156.994 59.7703C112.654 20.7159 83.6839 -37.504 63.3815 -97.7887" stroke="#2E39E6" stroke-width="0.866727" stroke-miterlimit="10"/>
<path opacity="0.54" d="M813.318 479.372C824.646 454.165 815.144 421.973 797.303 402.673C795.716 400.953 794.058 399.308 792.352 397.799C774.889 382.168 752.924 375.559 731.016 371.629C726.805 370.885 722.591 370.213 718.374 369.614C698.589 366.768 678.41 364.663 659.313 357.78C653.172 355.595 647.184 352.86 641.405 349.599C602.024 327.254 576.596 280.437 559.75 232.835C558.52 229.373 557.333 225.901 556.179 222.437C539.128 171.149 525.94 118.404 504.034 73.9813C492.985 51.574 479.639 28.3362 457.919 19.4708C431.902 8.8312 402.455 21.6242 379.666 39.2807C364.156 51.3038 350.162 65.6148 335.044 77.8303C327.972 83.6476 320.504 88.7803 312.714 93.1769C262.633 120.847 198.979 104.619 153.901 64.7586C108.822 24.8986 79.6064 -34.612 59.1025 -96.0682" stroke="#2E39E6" stroke-width="0.866727" stroke-miterlimit="10"/>
<path opacity="0.54" d="M813.334 503.051C824.674 477.871 815.394 445.723 797.719 426.182C796.145 424.431 794.504 422.791 792.802 421.23C775.46 405.378 753.582 398.43 731.692 394.195C727.494 393.381 723.281 392.676 719.071 392.013C699.312 388.901 679.137 386.577 660.087 379.575C653.964 377.35 647.993 374.59 642.225 371.319C602.899 348.799 577.642 301.941 561.11 254.188C559.904 250.721 558.739 247.245 557.615 243.761C540.964 192.316 528.758 139.178 507.608 93.7946C496.768 70.5204 483.295 46.4942 461.223 37.2599C434.781 26.1708 404.785 39.4119 381.712 57.7304C366.006 70.1966 351.883 85.0902 336.591 97.8063C329.442 103.864 321.877 109.224 313.973 113.831C263.157 142.806 198.161 126.441 152.334 85.7774C106.508 45.1138 77.0558 -15.6938 56.3497 -78.3148" stroke="#2E39E6" stroke-width="0.866727" stroke-miterlimit="10"/>
<path opacity="0.54" d="M810.221 494.608C821.578 469.466 812.506 437.341 795.011 417.568C793.45 415.801 791.827 414.129 790.141 412.554C772.935 396.465 751.135 389.2 729.264 384.663C725.069 383.79 720.855 383.02 716.662 382.313C696.932 378.939 676.773 376.377 657.763 369.272C651.655 367.008 645.699 364.215 639.947 360.918C600.676 338.235 575.587 291.342 559.376 243.423C558.202 239.936 557.065 236.454 555.958 232.952C539.718 181.346 528.495 127.828 508.09 81.4919C497.463 57.3648 483.858 32.5257 461.443 22.9181C434.578 11.3918 404.023 25.0681 380.671 44.0478C364.779 56.963 350.526 72.4119 335.062 85.6472C327.838 91.946 320.177 97.532 312.158 102.347C260.605 132.616 194.268 116.124 147.705 74.6711C101.143 33.2185 71.4427 -28.8984 50.5358 -92.6867" stroke="#2E39E6" stroke-width="0.866727" stroke-miterlimit="10"/>
<path opacity="0.54" d="M808.667 502.228C820.03 477.111 811.181 445.032 793.862 425.017C792.311 423.235 790.703 421.535 789.041 419.939C771.962 403.632 750.249 396.033 728.396 391.177C724.204 390.25 720.006 389.421 715.813 388.647C696.108 385.005 675.972 382.224 657.007 375.01C650.908 372.713 644.963 369.892 639.221 366.57C600 343.699 575.095 296.777 559.198 248.701C558.045 245.209 556.931 241.708 555.855 238.2C540.023 186.437 529.813 132.544 510.125 85.2312C499.733 60.2446 485.963 34.6149 463.208 24.6312C435.922 12.6524 404.806 26.7663 381.168 46.4365C365.083 59.8177 350.709 75.8154 335.062 89.5639C327.76 96.1072 319.998 101.92 311.859 106.94C259.571 138.503 191.895 121.899 144.586 79.6426C97.2778 37.386 67.3396 -26.0274 46.2316 -90.985" stroke="#2E39E6" stroke-width="0.866727" stroke-miterlimit="10"/>
<path opacity="0.54" d="M807.115 509.862C818.495 484.788 809.861 452.737 792.697 432.498C791.167 430.698 789.572 428.984 787.912 427.356C770.972 410.815 749.332 402.885 727.503 397.746C723.311 396.765 719.113 395.867 714.938 395.046C695.251 391.153 675.133 388.138 656.218 380.792C650.134 378.453 644.204 375.6 638.475 372.255C599.319 349.194 574.577 302.264 559.001 254.026C557.869 250.515 556.781 247.004 555.736 243.492C540.31 191.572 531.129 137.316 512.147 89.0281C501.99 63.1923 488.067 36.7457 464.955 26.3897C437.248 13.9585 405.571 28.525 381.663 48.8544C365.385 62.6866 350.89 79.2439 335.066 93.5062C327.688 100.29 319.83 106.33 311.575 111.563C258.554 144.433 189.536 127.689 141.498 84.6403C93.4602 41.5911 63.2678 -23.126 41.9693 -89.2554" stroke="#2E39E6" stroke-width="0.866727" stroke-miterlimit="10"/>
<path opacity="0.54" d="M805.573 517.478C816.957 492.424 808.541 460.426 791.568 439.941C790.054 438.11 788.465 436.376 786.831 434.735C770.018 417.959 748.464 409.716 726.668 404.245C722.49 403.194 718.294 402.253 714.109 401.367C694.45 397.213 674.34 393.96 655.479 386.51C649.408 384.141 643.492 381.259 637.781 377.887C598.672 354.652 574.1 307.682 558.851 259.293C557.742 255.777 556.678 252.256 555.661 248.73C540.641 196.65 532.502 142.042 514.21 92.7572C504.312 66.0737 490.21 38.8223 466.761 28.0919C438.628 15.224 406.395 30.2273 382.202 51.2169C365.735 65.499 351.114 82.617 335.118 97.4072C327.664 104.429 319.71 110.696 311.341 116.139C257.581 150.303 187.226 133.447 138.45 89.5962C89.6741 45.7456 59.2354 -20.2705 37.7361 -87.5672" stroke="#2E39E6" stroke-width="0.866727" stroke-miterlimit="10"/>
<path opacity="0.54" d="M804.019 525.096C815.409 500.081 807.222 468.115 790.406 447.391C788.903 445.542 787.34 443.772 785.705 442.122C769.028 425.112 747.552 416.535 725.773 410.778C721.598 409.669 717.406 408.677 713.233 407.733C693.605 403.312 673.518 399.837 654.693 392.258C648.634 389.856 642.731 386.949 637.029 383.562C597.978 360.149 573.576 313.16 558.639 264.601C557.55 261.067 556.521 257.535 555.524 253.994C540.908 201.743 533.814 146.807 516.212 96.5253C506.579 68.9925 492.288 40.9233 468.488 29.8216C439.932 16.5016 407.142 31.9547 382.67 53.6075C366.011 68.3423 351.269 86.0306 335.088 101.326C327.559 108.595 319.504 115.09 311.013 120.738C256.522 156.204 184.822 139.212 135.311 94.5697C85.8005 49.9277 55.1019 -17.3931 33.4068 -85.8604" stroke="#2E39E6" stroke-width="0.866727" stroke-miterlimit="10"/>
<path opacity="0.54" d="M802.467 532.716C814.89 505.499 804.326 470.051 784.607 449.505C764.888 428.959 738.288 420.262 712.39 414.08C686.492 407.898 659.768 403.411 636.305 389.225C594.481 363.918 569.631 311.655 555.435 259.258C541.239 206.862 535.199 151.587 518.263 100.296C508.896 71.9164 494.407 43.0533 470.27 31.5685C441.291 17.7964 407.942 33.7016 383.184 56.0301C358.426 78.3585 337.926 107.267 310.75 125.363C255.523 162.126 182.485 145.015 132.236 99.569C81.9864 54.1235 51.0424 -14.4921 29.1518 -84.1278" stroke="#2E39E6" stroke-width="0.866727" stroke-miterlimit="10"/>
</g>
</svg>
